<?xml version="1.0" encoding="utf-8"?>
<!-- Generator: Adobe Illustrator 16.0.0, SVG Export Plug-In . SVG Version: 6.00 Build 0)  -->
<!DOCTYPE svg PUBLIC "-//W3C//DTD SVG 1.1//EN" "http://www.w3.org/Graphics/SVG/1.1/DTD/svg11.dtd">
<svg version="1.1" id="Layer_1" xmlns="http://www.w3.org/2000/svg" xmlns:xlink="http://www.w3.org/1999/xlink" x="0px" y="0px"
	 width="46.082px" height="43.064px" viewBox="0 0 46.082 43.064" enable-background="new 0 0 46.082 43.064" xml:space="preserve">
<path fill="#636466" d="M22.932,39.139v3.904l-0.943-0.763c-0.146-0.118-3.616-2.936-7.136-6.976
	c-4.854-5.574-7.315-10.577-7.315-14.87v-0.426c0-8.489,6.906-15.396,15.395-15.396c8.49,0,15.396,6.906,15.396,15.396v0.426
	c0,0.36-0.02,0.727-0.054,1.097l-3.011-2.746c-0.617-6.261-5.912-11.168-12.332-11.168c-6.832,0-12.391,5.559-12.391,12.392v0.426
	C10.541,27.689,19.889,36.473,22.932,39.139z M32.17,36.981h4.506v-4.506H32.17V36.981z M22.932,13.625
	c3.521,0,6.385,2.863,6.385,6.384s-2.864,6.384-6.385,6.384c-3.52,0-6.383-2.863-6.383-6.384S19.412,13.625,22.932,13.625z
	 M22.932,16.629c-1.863,0-3.379,1.517-3.379,3.38s1.516,3.38,3.379,3.38s3.381-1.517,3.381-3.38S24.795,16.629,22.932,16.629z
	 M44.059,34.94l-0.846-0.771v4.822c0,2.246-1.826,4.072-4.072,4.072h-9.512c-2.245,0-4.072-1.826-4.072-4.072V34.17l-0.844,0.771
	l-2.025-2.22L34.385,22.05l11.697,10.671L44.059,34.94z M40.209,31.43l-5.824-5.313l-5.824,5.313v7.563
	c0,0.59,0.48,1.068,1.068,1.068h9.512c0.59,0,1.068-0.479,1.068-1.068V31.43z"/>
</svg>
