<?xml version="1.0" encoding="utf-8"?>
<!-- Generator: Adobe Illustrator 16.0.0, SVG Export Plug-In . SVG Version: 6.00 Build 0)  -->
<!DOCTYPE svg PUBLIC "-//W3C//DTD SVG 1.1//EN" "http://www.w3.org/Graphics/SVG/1.1/DTD/svg11.dtd">
<svg version="1.1" id="Layer_1" xmlns="http://www.w3.org/2000/svg" xmlns:xlink="http://www.w3.org/1999/xlink" x="0px" y="0px"
	 width="34.015px" height="34.371px" viewBox="0 0 34.015 34.371" enable-background="new 0 0 34.015 34.371" xml:space="preserve">
<g>
	<path fill="#636466" d="M1.036,34.371c3.06-2.41,6.079-4.79,9.099-7.169c0.876-0.69,1.754-1.376,2.624-2.074
		c0.156-0.126,0.261-0.138,0.431-0.015c0.52,0.377,1.046,0.744,1.587,1.089c1.346,0.856,2.705,0.854,4.05,0.001
		c0.609-0.387,1.199-0.804,1.821-1.222c3.947,3.11,7.909,6.231,11.919,9.39C22.035,34.371,11.562,34.371,1.036,34.371z"/>
	<path fill="#636466" d="M34.015,33.814c-4.114-3.241-8.168-6.436-12.246-9.648c0.103-0.074,0.188-0.135,0.272-0.197
		c2.967-2.163,5.945-4.313,8.897-6.497c1.06-0.784,2.063-1.646,2.944-2.729c0.053,0.114,0.101,0.195,0.128,0.283
		c0.017,0.057,0.004,0.124,0.004,0.186c0,6.065,0,12.129,0,18.195C34.015,33.52,34.015,33.633,34.015,33.814z"/>
	<path fill="#636466" d="M0,15.112c1.982,2.018,4.271,3.622,6.524,5.265c1.679,1.223,3.382,2.412,5.073,3.617
		c0.071,0.051,0.141,0.105,0.231,0.175C7.886,27.276,3.96,30.369,0,33.489C0,27.347,0,21.24,0,15.112z"/>
	<path fill="#636466" d="M30.231,6.189c0,0.25,0,0.454,0,0.658c0,1.624,0.003,3.248-0.004,4.872
		c-0.001,0.17,0.051,0.277,0.186,0.379c0.793,0.607,1.579,1.223,2.396,1.857c-1.065,1.262-2.376,2.215-3.687,3.258
		c0-3.313,0-6.57,0-9.848c-8.092,0-16.152,0-24.25,0c0,3.357,0,6.713,0,10.086c-0.638-0.306-3.367-2.623-3.913-3.317
		c0.063-0.053,0.127-0.11,0.194-0.162c0.788-0.614,1.573-1.231,2.368-1.836c0.166-0.126,0.233-0.255,0.232-0.465
		C3.746,9.958,3.75,8.245,3.75,6.532c0-0.104,0-0.209,0-0.342c0.148,0,0.263,0,0.377,0c2.24,0,4.479-0.003,6.719,0.005
		c0.229,0.001,0.404-0.063,0.582-0.203c1.171-0.92,2.35-1.832,3.526-2.746c1.25-0.972,2.82-0.973,4.075,0
		c1.191,0.924,2.378,1.854,3.576,2.768c0.135,0.104,0.335,0.169,0.505,0.17c2.257,0.011,4.515,0.007,6.771,0.007
		C29.987,6.189,30.093,6.189,30.231,6.189z"/>
	<path fill="#636466" d="M18.679,17.354c-0.944,0.829-1.983,0.905-3.087,0.471c-0.484-0.191-0.829-0.558-1.025-1.041
		c-0.307-0.754-0.304-1.521,0.029-2.262c0.361-0.807,1.059-1.148,1.896-1.238c0.631-0.067,1.224,0.064,1.749,0.437
		c0.186-0.324,0.459-0.432,0.804-0.324c0.206,0.063,0.265,0.223,0.263,0.416c-0.003,0.687-0.013,1.374-0.01,2.061
		c0.001,0.221,0.005,0.449,0.056,0.662c0.093,0.393,0.394,0.602,0.83,0.621c0.429,0.019,0.745-0.177,0.888-0.55
		c0.013-0.034,0.028-0.067,0.033-0.102c0.131-0.982,0.17-1.96-0.273-2.884c-0.361-0.754-1.011-1.164-1.796-1.356
		c-1.259-0.31-2.531-0.321-3.79-0.023c-1.349,0.318-2.171,1.176-2.314,2.569c-0.067,0.658-0.068,1.344,0.037,1.995
		c0.215,1.325,1.114,2.062,2.369,2.35c1.639,0.376,3.24,0.241,4.771-0.508c0.206-0.101,0.427-0.178,0.648-0.237
		c0.198-0.053,0.375,0.013,0.473,0.209c0.103,0.206,0.013,0.372-0.147,0.492c-0.155,0.117-0.322,0.227-0.501,0.302
		c-1.858,0.776-3.778,0.969-5.734,0.485c-1.883-0.464-2.913-1.742-3.014-3.697c-0.031-0.608-0.005-1.238,0.116-1.833
		c0.296-1.451,1.239-2.364,2.625-2.799c1.742-0.547,3.503-0.527,5.234,0.046c1.508,0.499,2.334,1.649,2.382,3.238
		c0.017,0.542,0.019,1.091-0.048,1.628c-0.106,0.863-0.69,1.38-1.557,1.461C19.871,18.009,19.218,17.878,18.679,17.354z
		 M15.332,15.678c-0.012,1.291,0.886,1.782,1.993,1.538c0.437-0.096,0.724-0.375,0.849-0.804c0.143-0.491,0.142-0.987,0.002-1.479
		c-0.09-0.316-0.286-0.558-0.6-0.674c-0.485-0.18-0.984-0.19-1.466-0.002C15.468,14.509,15.341,15.067,15.332,15.678z"/>
</g>
</svg>
